<?xml version="1.0" encoding="UTF-8"?>
<svg width="200px" height="25px" viewBox="0 0 200 25" version="1.1" xmlns="http://www.w3.org/2000/svg" xmlns:xlink="http://www.w3.org/1999/xlink">
    <title>BLUEMELON</title>
    <g id="Welcome" stroke="none" stroke-width="1" fill="none" fill-rule="evenodd">
        <g id="Desktop" transform="translate(-72, -30)" fill-rule="nonzero">
            <g id="BLUEMELON" transform="translate(72.1562, 30.875)">
                <path d="M0,23.5948683 L0,0.324105334 L9.46387576,0.324105334 C11.0087779,0.324105334 12.3349088,0.880486158 13.4422687,1.99324781 C14.5496286,3.10600945 15.1033086,4.44564483 15.1033086,6.01215395 C15.1033086,6.99527346 14.8791357,7.89466577 14.43079,8.71033086 C13.9824443,9.52599595 13.3639433,10.1931128 12.575287,10.7116813 C13.7852802,11.2302498 14.7683997,12.0459149 15.5246455,13.1586766 C16.2808913,14.2714382 16.6590142,15.513842 16.6590142,16.8858879 C16.6590142,18.7224848 16.0027009,20.2997974 14.6900743,21.6178258 C13.3774477,22.9358542 11.8028359,23.5948683 9.96623903,23.5948683 L0,23.5948683 Z M1.49088454,1.83119514 L1.49088454,10.1931128 L9.46387576,10.1931128 C10.6090479,10.1931128 11.5921675,9.78257934 12.4132343,8.96151249 C13.2343011,8.14044564 13.6448346,7.15732613 13.6448346,6.01215395 C13.6448346,4.86698177 13.2343011,3.88386226 12.4132343,3.06279541 C11.5921675,2.24172856 10.6090479,1.83119514 9.46387576,1.83119514 L1.49088454,1.83119514 Z M13.6448346,20.5806887 C14.6603646,19.5651587 15.1681296,18.3335584 15.1681296,16.8858879 C15.1681296,15.4382174 14.6603646,14.209318 13.6448346,13.1991897 C12.6293045,12.1890614 11.403106,11.6839973 9.96623903,11.6839973 L1.49088454,11.6839973 L1.49088454,22.1039838 L9.96623903,22.1039838 C11.403106,22.1039838 12.6293045,21.5962188 13.6448346,20.5806887 Z" id="Shape" fill="#12285F"></path>
                <polygon id="Path" fill="#12285F" points="35.646185 23.5948683 22.4388926 23.5948683 22.4388926 0.324105334 23.9297772 0.324105334 23.9297772 22.1039838 35.646185 22.1039838"></polygon>
                <path d="M56.3889264,15.1033086 L56.3889264,0.324105334 L57.8474004,0.324105334 L57.8474004,15.1033086 C57.8474004,16.3133018 57.6151249,17.4665766 57.1505739,18.563133 C56.686023,19.6596894 56.0594193,20.6049966 55.270763,21.3990547 C54.4821067,22.1931128 53.5422012,22.8251182 52.4510466,23.2950709 C51.359892,23.7650236 50.209318,24 48.9993248,24 C47.3896016,24 45.901418,23.602971 44.5347738,22.8089129 C43.1681296,22.0148548 42.0877785,20.9345037 41.2937205,19.5678596 C40.4996624,18.2012154 40.1026334,16.7130317 40.1026334,15.1033086 L40.1026334,0.324105334 L41.5935179,0.324105334 L41.5935179,15.1033086 C41.5935179,17.1451722 42.3173531,18.8872384 43.7650236,20.3295071 C45.2126941,21.7717758 46.9574612,22.4929102 48.9993248,22.4929102 C51.0411884,22.4929102 52.7832546,21.7717758 54.2255233,20.3295071 C55.667792,18.8872384 56.3889264,17.1451722 56.3889264,15.1033086 Z" id="Path" fill="#12285F"></path>
                <polygon id="Path" fill="#12285F" points="63.6758947 0.324105334 76.2835922 0.324105334 76.2835922 1.83119514 65.1667792 1.83119514 65.1667792 10.6144497 75.7164078 10.6144497 75.7164078 12.0729237 65.1667792 12.0729237 65.1667792 22.1039838 76.883187 22.1039838 76.883187 23.5948683 63.6758947 23.5948683"></polygon>
                <polygon id="Path" fill="#12285F" points="107.808238 23.5948683 105.085753 23.5948683 103.3842 4.74814315 100.969615 12.2835922 96.7238352 23.5948683 93.3369345 23.5948683 89.0911546 12.2835922 86.6603646 4.74814315 84.9750169 23.5948683 82.2201215 23.5948683 84.3430115 0.324105334 87.4868332 0.324105334 95.0222822 20.3051992 102.525321 0.324105334 105.685348 0.324105334"></polygon>
                <polygon id="Path" fill="#12285F" points="113.053342 0.324105334 126.795409 0.324105334 126.795409 3.04659014 115.775827 3.04659014 115.775827 10.1282917 126.228224 10.1282917 126.228224 12.8021607 115.775827 12.8021607 115.775827 20.8723835 127.346388 20.8723835 127.346388 23.5948683 113.053342 23.5948683"></polygon>
                <polygon id="Path" fill="#12285F" points="147.532748 23.5948683 133.369345 23.5948683 133.369345 0.324105334 136.09183 0.324105334 136.09183 20.8723835 147.532748 20.8723835"></polygon>
                <ellipse id="Oval" fill="#CCEDF9" cx="162.376772" cy="12.1863606" rx="9.67994598" ry="10.0256583"></ellipse>
                <path d="M162.387576,0 C163.964889,0 165.47738,0.313301823 166.925051,0.939905469 C168.372721,1.56650912 169.620527,2.41188386 170.668467,3.47602971 C171.716408,4.54017556 172.550979,5.81228899 173.172181,7.29237002 C173.793383,8.77245105 174.103984,10.3335584 174.103984,11.9756921 C174.103984,13.6070223 173.793383,15.1654288 173.172181,16.6509115 C172.550979,18.1363943 171.713707,19.4166104 170.660365,20.4915598 C169.607022,21.5665091 168.356516,22.4199865 166.908845,23.0519919 C165.461175,23.6839973 163.943282,24 162.355165,24 C160.767049,24 159.249156,23.6839973 157.801485,23.0519919 C156.353815,22.4199865 155.10871,21.5665091 154.066172,20.4915598 C153.023633,19.4166104 152.191762,18.1363943 151.57056,16.6509115 C150.949359,15.1654288 150.638758,13.6070223 150.638758,11.9756921 C150.638758,10.3335584 150.946658,8.77245105 151.562458,7.29237002 C152.178258,5.81228899 153.010128,4.54017556 154.058069,3.47602971 C155.106009,2.41188386 156.353815,1.56650912 157.801485,0.939905469 C159.249156,0.313301823 160.777853,0 162.387576,0 Z M162.355165,2.69007427 C160.745442,2.69007427 159.249156,3.10330858 157.866307,3.92977718 C156.483457,4.75624578 155.386901,5.88251182 154.576637,7.30857529 C153.766374,8.73463876 153.361242,10.2903444 153.361242,11.9756921 C153.361242,13.2397029 153.601621,14.4442944 154.082377,15.5894666 C154.563133,16.7346388 155.205942,17.72316 156.010804,18.5550304 C156.815665,19.3869007 157.771776,20.0486158 158.879136,20.5401756 C159.986496,21.0317353 161.145172,21.2775152 162.355165,21.2775152 C163.986496,21.2775152 165.496286,20.86158 166.884537,20.0297097 C168.272789,19.1978393 169.369345,18.0688724 170.174207,16.6428089 C170.979068,15.2167454 171.381499,13.6610398 171.381499,11.9756921 C171.381499,10.7116813 171.143822,9.5070898 170.668467,8.36191762 C170.193113,7.21674544 169.550304,6.23092505 168.740041,5.40445645 C167.929777,4.57798785 166.968265,3.91897367 165.855503,3.42741391 C164.742741,2.93585415 163.575962,2.69007427 162.355165,2.69007427 Z" id="Shape" fill="#12285F"></path>
                <polygon id="Path" fill="#12285F" points="179.916273 0.356515868 183.432816 0.356515868 196.299797 19.8838623 196.299797 0.388926401 199.022282 0.388926401 199.022282 23.6272789 195.53815 23.6272789 182.638758 4.11613774 182.638758 23.5948683 179.916273 23.5948683"></polygon>
            </g>
        </g>
    </g>
</svg>
