<svg xmlns="http://www.w3.org/2000/svg" viewBox="0 0 640 640">
  <g fill="none" fill-rule="evenodd">
    <g fill="#E5E7EB">
      <path d="M73.952 150.605c4.71-7.318 9.804-14.442 15.833-20.745-2.416 15.356-3.258 31.158-.081 46.473 2.628 13.976 7.794 27.505 15.224 39.633 6.627 9.419 15.203 17.67 25.515 22.948 5.521 2.79 11.59 4.16 17.568 5.602-1.461 6.81-3.39 13.762-2.11 20.776 2.171 12.564 4.404 25.14 7.114 37.603 4.476 15.061 12.828 29.91 26.621 38.232 5.126 3.156 10.84 5.156 16.493 7.135 1.198 12.21-1.624 25.13 3.501 36.71 2.426 6.83 8.17 11.55 12.525 17.091 1.786 1.99 1.492 4.81 1.563 7.287-.498 22.034-.325 44.068-.569 66.102-7.916 3.877-16.137 7.084-24.297 10.383-10.555 3.765-20.542 8.9-31.077 12.697-18.705 8.23-37.664 15.893-56.532 23.76-5.287-4.274-9.388-9.724-13.803-14.829-6.343-7.663-12.534-15.518-17.588-24.104-5.085-8.424-10.992-16.371-15.336-25.221-19.395-37.32-31.513-78.748-32.965-120.898-.395-8.77-.872-17.548-.253-26.317.812-19.852 2.192-39.897 7.632-59.1a281.843 281.843 0 0 1 21.425-59.769c6.333-14.635 15.366-27.86 23.597-41.45ZM100.015 116.798c5.43-6.475 11.022-12.89 17.437-18.411-1.046 5.765-2.639 11.398-3.938 17.101-4.425 1.056-8.962 1.472-13.499 1.31ZM446.166 45.834c5.572 2.497 10.799 5.663 16.249 8.414 7.947 3.938 15.112 9.195 22.41 14.189 6.028 4.475 12.666 8.099 18.33 13.072 11.782 10.16 24.175 19.78 34.334 31.655 13.377 13.986 24.967 29.606 35.208 46.017 14.31 22.004 24.723 46.28 33.31 71.004 5.886 20.126 10.697 40.638 12.859 61.525 1.877 27.332 1.675 55.01-3.309 82.026-2.882 16.26-7.378 32.224-12.88 47.783-3.724 9.358-7.642 18.654-11.67 27.89-3.97 9.196-9.4 17.65-14.332 26.338-4.303 7.662-9.367 14.858-14.554 21.942-7.277 8.88-14.026 18.249-22.247 26.307-7.977-3.796-16.37-6.577-24.409-10.23-18.36-8.231-37.227-15.295-55.587-23.526-9.155-4.852-19.436-7.115-28.378-12.413-1.36-.862-2.983-1.867-3.166-3.623-.7-4.669-.264-9.398-.325-14.087.254-17.264-.467-34.518-.294-51.782-.295-3.42 1.36-6.445 3.704-8.789 7.003-7.551 12.037-17.264 12.565-27.677.345-7.602-.396-15.214.345-22.795 8.262-2.07 16.3-5.572 22.643-11.378 6.384-5.967 12.108-12.828 15.853-20.785 5.024-10.424 6.384-22.055 8.262-33.34 1.258-8.14 3.217-16.189 3.826-24.42.426-5.308-1.462-10.362-3.228-15.264 3.634-2.091 7.511-3.999 10.373-7.155 4.14-4.598 7.135-10.099 9.348-15.854-4.558-1.755-9.734-2.821-13.154-6.556-2.03-2.253-3.887-4.882-4.415-7.916 1.167-4.456 4.182-8.08 6.06-12.23 5.165-11.053 7.885-23.303 7.601-35.513-.091-8.19-.04-16.502-2.05-24.5-3.45-13.935-9.764-27.139-18.177-38.75-9.43-13.935-23.8-23.749-39.146-30.163-.122-6.516-1.279-12.95-1.959-19.416Z"/>
    </g>
    <path fill="#111827" fill-rule="nonzero" d="M361.663 0c6.597.558 13.336.609 19.71 2.619 16.97 5.5 32.874 16.462 41.348 32.487 10.018 16.736 10.637 38.182 2.66 55.831-1.076 1.705-2.102 3.441-3.147 5.156a81.167 81.167 0 0 0-1.157 1.644 51.162 51.162 0 0 1-16.036 14.443c7.886-1.32 15.955-3.055 22.755-7.47 7.673-5.227 14.128-12.565 17.315-21.364 19.577 9.104 34.09 27.19 41.114 47.356 5.136 13.925 5.136 29.25 2.162 43.652-1.827 8.292-6.222 15.67-10.748 22.724.903 7.085 1.086 14.28-.213 21.314 2.141 4.72 6.962 7.662 12.037 8.18-5.339 3.309-11.773 3.278-17.812 2.629-.325 4.344-1.634 8.698-4.669 11.956 4.821 2.11 8.89 6.028 10.342 11.194 2.142 5.826.548 12.058-.64 17.893-1.877 10.261-4.2 20.43-5.936 30.712-.792 5.054-4.162 9.104-6.902 13.255-.71 1.005-1.41 2.03-2.1 3.065-4.538 5.684-9.998 11.002-16.94 13.57-5.805 2.182-13.011 1.39-17.355-3.34-.396 14.788-.112 29.586-.213 44.373-.071 1.736-.457 3.45-.772 5.166a84.261 84.261 0 0 0-3.227 4.1c-.568.731-1.147 1.472-1.725 2.203-11.358 14.32-24.176 27.372-36.01 41.277-7.176 8.413-14.574 16.634-21.517 25.241 3.055-1.99 6.12-4.009 8.932-6.333 6.445-5.004 12.483-10.505 18.867-15.59 5.39-5.216 11.053-10.128 16.787-14.96a84.457 84.457 0 0 1 1.543-.355c.73 21.233.223 42.475.264 63.717.02 6.841 3.633 13.895 10.037 16.818 20.268 10.555 41.734 18.553 62.601 27.799 14.33 5.825 28.773 11.397 42.708 18.126-12.494 10.687-25.464 20.826-38.993 30.184-33.523 22.48-71.522 38.73-111.388 45.61-19.792 3.462-39.867 5.725-60.003 4.974-39.186-1.512-78.362-9.774-114.138-26.063-16.808-7.562-33.138-16.3-48.21-26.967-13.366-8.78-25.606-19.141-37.41-29.89 9.987-5.003 20.502-8.82 30.692-13.366 16.482-7.368 33.37-13.752 49.853-21.11 8.627-4 17.913-6.628 25.982-11.764 4.587-2.902 6.76-8.15 8.272-13.123-.112-22.703.406-45.397-.082-68.09 12.332 13.315 26.977 24.104 41.328 35.105-6.19-7.195-11.885-14.807-18.086-21.983-6.252-6.983-12.31-14.138-18.522-21.151-7.003-7.937-14.585-15.467-20.217-24.49-.873-1.188-.63-2.73-.71-4.1-.082-14.99.283-29.992-.59-44.962-3.237 2.142-6.77 4.354-10.819 4.172-5.937.385-11.407-2.71-15.731-6.486-4.293-3.867-7.774-8.545-10.971-13.326-2.345-3.613-4.75-7.338-5.613-11.62-2.77-12.403-4.577-24.998-7.247-37.42-1.228-6.233-.365-13.388 4.04-18.25 2.03-2.415 5.186-3.217 8.11-3.937-6.507-3.826-11.409-9.723-15.945-15.63-6.293-8.475-10.038-18.786-10.332-29.362-5.735-2.994-11.317-6.232-16.574-10.007-.7 9.52.457 19.304 4.669 27.951 1.735 3.573 3.836 6.952 5.805 10.393-15.528-6.465-27.23-20.35-32.396-36.192-2.091-6.547-2.375-13.53-1.462-20.31-.944-3.5-2.73-6.728-3.37-10.32-1.908-7.826-.649-15.905.62-23.71 10.037 8.87 24.672 10.16 37.237 6.973 12.656-3.075 22.156-12.737 30.245-22.369-9.246 6.485-20.796 9.216-32 8.84-5.887-.162-11.347-2.608-16.9-4.303 2.762-13.448 9.795-25.718 18.178-36.446.772-1.604 2.365.02 3.299.507 11.296 8.069 26.266 8.272 39.318 5.197 11.377-2.66 20.674-10.241 28.783-18.29 6.08-5.652 10.86-12.483 16.138-18.836-15.711 11.489-34.376 20.46-54.248 20.268-7.51.375-15.183-.995-21.8-4.68-7.42-3.907-13.844-10.676-15.478-19.11-1.888-8.942.284-18.786 5.917-26.023.07 6.648 2.334 13.499 7.46 17.954 8.088 7.876 20.694 9.398 31.117 5.836 10.098-3.4 18.38-10.342 26.895-16.503 9.368-7.297 19.375-13.742 30.032-18.979 24.805-11.397 53.101-14.899 79.956-10.098 19.588 3.653 38.598 12.798 51.995 27.809 13.234 15.416 20.258 37.318 14.178 57.231-.64 1.025-1.279 2.05-1.908 3.076 10.454-8.627 16.95-22.014 16.655-35.624.497-10.83-2.964-21.578-9.033-30.479C384.743 14.554 373.771 5.927 361.664 0M251.33 93.739c-17.061 3.46-31.483 14.665-42.343 27.88l-.254.142c-10.403 11.347-18.36 25.444-31.93 33.482-12.27 7.318-27.22 11.5-41.408 8.333 7.804 5.785 16.888 10.26 26.692 11.083 14.625 1.908 29.778-3.147 40.881-12.728 10.2-9.185 18.198-20.43 27.22-30.701 8.78-10.302 20.178-18.4 32.986-22.846 11.966-3.968 25.12-6.323 37.542-3.136-13.001-12.027-32.447-15.315-49.386-11.51Z"/>
    <g fill="#E5E7EB">
      <path d="M251.33 93.739c16.94-3.806 36.386-.518 49.387 11.509-12.423-3.187-25.576-.832-37.542 3.136-12.808 4.445-24.206 12.544-32.985 22.846-9.023 10.271-17.02 21.516-27.22 30.701-11.104 9.581-26.257 14.636-40.882 12.728-9.804-.823-18.888-5.298-26.692-11.083 14.188 3.166 29.138-1.015 41.409-8.333 13.57-8.038 21.526-22.135 31.93-33.482l.253-.142c10.86-13.215 25.282-24.42 42.343-27.88ZM385.504 424.625c11.834-13.905 24.652-26.957 36.01-41.277.395.69 1.197 2.06 1.593 2.75-6.262 6.06-10.16 14.087-16.726 19.872-5.47 6.293-11.053 12.484-16.858 18.482-5.328 6.546-11.408 12.433-16.604 19.08-2.812 2.325-5.877 4.345-8.932 6.334 6.943-8.607 14.341-16.828 21.517-25.241Z"/>
    </g>
  </g>
</svg>
