<?xml version="1.0" encoding="UTF-8"?>
<svg width="64px" height="36px" viewBox="0 0 64 36" version="1.1" xmlns="http://www.w3.org/2000/svg" xmlns:xlink="http://www.w3.org/1999/xlink">
    <title>elementAir-logo</title>
    <g id="Welcome" stroke="none" stroke-width="1" fill="none" fill-rule="evenodd">
        <g id="Artboard" transform="translate(-407, -297)" fill-rule="nonzero">
            <g id="elementAir-logo" transform="translate(407, 297)">
                <g id="#ffffffff" fill="#000000">
                    <path d="M46.2308271,0.0925590518 C46.9121331,0.00825028335 47.6823051,-0.139859715 48.2747451,0.309027512 C49.1839126,0.812601507 49.1679623,2.09774057 48.67806,2.89297734 C48.2701879,3.55833302 47.7506636,4.45155024 46.8483319,4.37179871 C46.385773,4.02772779 46.0758813,3.52871102 45.7249745,3.08210241 C46.2946284,2.1319198 47.0761934,1.25465289 48.1585357,0.901467506 C47.600275,1.07236366 47.0328997,1.29338935 46.6341421,1.73999796 C45.5540784,2.8587981 44.8522648,4.27609686 44.2005808,5.67288808 C42.8242972,8.60774467 41.8444926,11.7021043 40.7416427,14.7440558 C40.5297315,15.2635802 40.3474423,15.8560201 39.85754,16.1818621 C39.4314389,16.3254149 38.8777354,16.3140218 38.6362021,15.8719705 C38.0551552,14.9172306 37.9229955,13.7642512 37.7589352,12.6796303 C37.2553612,9.3688022 38.0255332,5.98050115 39.4656181,2.99323641 C39.987421,2.04077519 41.0355841,1.56910181 42.0108315,1.2113592 C43.3893938,0.741964431 44.8044139,0.377385972 46.2308271,0.0925590518 Z" id="Path"></path>
                    <path d="M35.2160005,17.6538477 C35.3868966,17.4259861 35.6261512,17.2664831 35.8426197,17.0887511 C36.0021228,17.1912887 36.3188503,17.3963641 36.4760748,17.5011804 C36.4099949,17.84753 36.3484723,18.1938795 36.2892283,18.540229 C36.2208698,18.9800018 36.1821334,19.4243318 36.1525114,19.8663832 C36.0590881,21.0193626 36.0340234,22.1746206 35.9952869,23.3298785 C36.5945628,23.0974598 37.2257392,22.9174492 37.8774232,23.0085938 C37.8591943,23.4005156 37.8865377,23.8334525 37.5880391,24.138787 C37.0343355,24.4805793 36.3986018,24.6583113 35.8152763,24.9431382 C35.7036242,27.023514 35.9041423,29.2109848 36.9021758,31.0771708 C37.3237197,31.2161663 37.5515812,30.7718363 37.8022289,30.5234672 C38.5427789,29.5915136 39.4314389,28.7962768 40.1788247,27.8734376 C40.5707466,27.4541724 40.923932,26.8867971 41.5551084,26.8389462 C41.6439744,27.171624 41.8627215,27.5498742 41.5528298,27.841537 C40.4590944,29.322637 39.1557264,30.6328408 37.93211,32.0022886 C37.5948749,32.3304092 37.3054908,32.7747392 36.8269815,32.9000631 C35.5874148,32.3076231 35.2479011,30.874374 34.9972534,29.6507576 C34.2794895,30.4665019 33.9422545,31.5328939 33.3042422,32.4056035 C33.2176548,32.4375042 33.0399228,32.4990268 32.9533354,32.5309274 C31.8687145,32.5104198 32.0942974,31.1842657 32.1991137,30.4551088 C32.4383683,29.4160602 32.3563382,28.3428323 31.9598591,27.3539133 C30.6131974,28.7074108 30.4423013,30.6647414 30.1232951,32.4375042 C29.8954336,32.4352255 29.667572,32.4352255 29.4397105,32.4329469 C29.0660176,31.7311334 28.9019573,30.9564042 28.8768925,30.1657246 C28.0702627,30.9769117 27.3775636,31.9202585 26.4319382,32.5833355 C25.4977059,32.9501926 24.8255144,32.1526772 24.5156227,31.3688335 C23.8867249,31.5351725 23.1142743,31.7197403 22.7907109,30.9746331 C23.2054189,29.4251746 23.5449326,27.8164722 23.405937,26.2054911 C21.7539409,27.5498742 21.5488655,29.8216537 21.1523864,31.7675912 C20.8675595,31.7448051 20.5827326,31.7174617 20.2979057,31.6855611 C20.1178951,30.1657246 20.5394389,28.6367737 20.3024629,27.1169373 C19.277086,28.6458882 18.4294411,30.3434566 18.1605645,32.1822992 C17.7823143,32.2096426 17.3744422,32.1822992 17.1967102,31.7835415 C16.9847989,30.8652596 16.8139028,29.9355845 16.8047883,28.9899591 C16.7273154,28.9876805 16.5746482,28.9808446 16.4971752,28.9762874 C15.9753723,30.0221719 15.2644443,30.9495683 14.5831383,31.8929151 C14.2367888,32.3326878 13.8881606,32.8111971 13.3640791,33.0527303 C12.641758,33.0550089 12.108562,32.4830765 11.5594157,32.0911546 C10.6889847,32.8430977 9.66360776,33.7431508 8.42631962,33.569976 C7.51487347,33.2464126 7.43512194,32.2096426 7.50803763,31.3802266 C6.75381594,31.6810039 6.02693764,32.2506577 5.17245688,32.1526772 C4.66432565,32.0022886 4.29518996,31.6012523 3.92377566,31.2480669 C2.81408998,31.9453232 1.70440429,32.9365209 0.316727536,32.8955058 C0.239254613,32.7200525 0.0797515378,32.3668671 0,32.1891351 C1.25551707,31.4736499 2.59762152,30.8607023 3.67084935,29.8717833 C3.9146612,29.4342891 3.81440212,28.919322 3.87820335,28.4430914 C4.0331492,27.201246 5.25220842,26.1576402 6.53051164,26.4105665 C7.48753009,26.3194219 7.57639609,27.5544314 7.2368824,28.178772 C6.63988517,29.0879396 5.74211072,29.7259519 4.97421734,30.4756163 C4.94915257,30.7695577 5.08586949,30.9404539 5.38208949,30.992862 C6.23657025,30.6761345 7.0591504,30.2295259 7.7564067,29.6416431 C8.58126546,27.4610082 9.28535761,25.2165721 10.3289634,23.1225245 C11.0649562,21.8328282 12.0174174,20.5454106 13.41193,19.9279058 C14.033992,19.654472 14.555795,20.3745144 14.6378251,20.9236607 C15.1459563,22.5369204 14.3279334,24.1911952 13.400537,25.4808914 C12.1609702,27.1078228 10.7299998,28.582087 9.22839223,29.9674851 C8.54708623,30.6191691 8.631395,31.6491032 8.67696731,32.5081412 C9.61575684,32.1390055 10.3904861,31.4736499 11.1606581,30.8424734 C11.1925587,29.3066866 11.6847396,27.5931679 13.0519088,26.7250154 C13.4369948,26.508547 14.0317134,26.2670137 14.3416051,26.7204582 C14.7494773,27.2832762 14.6833974,28.1035777 14.2869183,28.6572813 C13.7332148,29.5277123 13.133939,30.3730786 12.4754191,31.170594 C12.5095984,31.2913606 12.5756782,31.5374511 12.6098574,31.6604963 C12.808097,31.6764466 13.0063365,31.6923969 13.204576,31.7106259 C14.626432,30.0039429 15.9753723,28.1309211 16.4766677,25.9275001 C16.7478229,25.9183856 17.0235354,25.9366145 17.2855762,26.0163661 C17.7868715,26.9255336 17.7185131,28.0215476 17.8278866,29.0241383 C18.5707152,27.8597659 19.2064489,26.6179205 20.0837158,25.5446927 C20.3115774,25.1641639 20.7832507,25.3282242 21.143272,25.3122739 C21.2708744,25.7269819 21.3893624,26.1439685 21.5055718,26.5632337 C21.8678717,25.7816687 22.4694261,24.968203 23.3899867,24.8588295 C23.8457098,24.7403415 24.1373726,25.1436564 24.353841,25.4763342 C24.5634736,26.449303 24.3606769,27.4496151 24.4244781,28.433977 C24.709305,27.7708999 24.9303307,27.0690864 25.3404815,26.4698105 C25.7415178,25.8933208 26.4820678,25.767997 27.1360304,25.7338178 C27.7466993,27.486073 26.7805664,29.4456822 25.4703625,30.6328408 C25.5706216,30.8196872 25.7711398,31.1911016 25.8713989,31.377948 C26.3294005,31.1683154 26.6962576,30.8174086 27.0266568,30.4414371 C27.9859539,29.3180797 29.0295597,28.0716771 28.9703157,26.4994325 C29.1252616,26.4219596 29.4374319,26.2670137 29.5946564,26.1918194 C30.4035648,26.7728664 30.0298719,27.752671 29.8658116,28.552465 C30.3739428,27.882552 30.7430785,27.0736436 31.4266631,26.5563979 C31.700097,26.3786659 31.9872025,26.2168842 32.2697508,26.0551025 C33.0581517,27.2992265 33.1492963,28.789441 33.0763806,30.2204114 C33.0809379,30.3662428 33.0900523,30.6579056 33.0946096,30.8060156 C34.1154292,29.2360496 34.4025348,27.3311271 34.6326749,25.5082348 C34.140494,25.5492499 33.6619848,25.6836882 33.1789183,25.7725542 C32.9237134,25.501399 32.8348474,25.1436564 32.7801606,24.7881924 C33.311078,24.4919724 33.9513689,24.3506982 34.4184851,23.961055 C34.6577397,21.8556144 34.8787654,19.7478952 35.2160005,17.6538477 M9.90058376,27.1693454 C9.82083222,27.4199931 9.75247376,27.6729194 9.69550838,27.930403 C10.882667,26.6042488 12.0265319,25.2370796 13.1179887,23.8311739 C13.7446079,23.0655592 14.0886788,21.9718238 13.648906,21.0353129 C11.6938541,22.5665424 10.8553236,24.9727602 9.90058376,27.1693454 M25.3450387,29.2109848 C25.8372196,28.652724 26.1698975,27.9577463 26.3202861,27.2331467 C25.5523927,27.5544314 25.1262916,28.3997977 25.3450387,29.2109848 M4.96966011,28.7985554 C5.53475672,28.4681562 6.04060933,28.0261048 6.31404318,27.4199931 C5.54842841,27.4632868 5.14967072,28.1354783 4.96966011,28.7985554 M12.4480757,29.6256928 C12.9288636,29.1608553 13.370915,28.6458882 13.6283985,28.0215476 C12.849112,28.1696576 12.37516,28.8441277 12.4480757,29.6256928 Z" id="Shape"></path>
                    <path d="M47.1787311,20.9737903 C47.4157071,20.5864256 47.2220248,19.6932084 47.866873,19.7797958 C48.8056625,20.3676786 49.6760936,21.0626563 50.4781662,21.828271 C49.7695168,21.7120616 49.0494743,21.6961113 48.3362677,21.620917 C47.9238384,21.4591353 47.5455882,21.2176021 47.1787311,20.9737903 Z" id="Path"></path>
                </g>
                <g id="#319ad3ff" transform="translate(31.0186, 7.7076)" fill="#0EA5E9">
                    <path d="M17.0670144,0.0502557578 C17.5933746,-0.02949578 18.2268297,-0.0727894719 18.598244,0.389769447 C19.2043556,0.895622058 19.2567638,1.72275944 19.2043556,2.45647358 C19.2339776,3.3041185 18.4364623,4.17227095 17.5523595,3.98770311 C16.9713126,4.02643957 16.6112914,3.53425865 16.3013997,3.11955065 C15.6200937,2.14886051 16.0006224,0.540158061 17.0670144,0.0502557578 Z" id="Path"></path>
                    <path d="M24.6434105,4.89687064 C25.2472436,4.6986311 25.9513357,5.07460264 26.1769187,5.65337094 C26.2475557,6.4189857 26.1541325,7.1891577 26.1381822,7.95477246 C27.0838076,7.42385508 27.9793034,6.73571324 29.0570885,6.49645862 C30.32172,6.3893637 31.4564705,7.26663062 32.1309406,8.26694276 C32.6686938,8.98698522 32.5570417,10.3359255 31.5476151,10.552394 C30.6635123,10.5296078 29.9503057,9.76399306 29.0365809,9.82095844 C27.9063877,9.68879875 26.755687,10.226552 26.0948885,11.1425554 C25.6049862,11.8762695 25.5502994,12.7831584 25.4044681,13.6285247 C25.0900191,15.7932093 24.8188639,17.969287 24.3380761,20.1043496 C24.1535082,20.8266707 23.9393184,21.5808923 23.4425802,22.1528248 C23.1850967,22.5014529 22.5835422,22.5265177 22.3169442,22.1801682 C21.6948822,21.5558276 21.6401955,20.5965305 21.7860269,19.7739504 C22.045789,15.540283 22.4627756,11.292944 23.4630878,7.16181431 C23.7137355,6.3597417 23.8891888,5.39133017 24.6434105,4.89687064 Z" id="Path"></path>
                    <path d="M16.6363561,6.18656694 C16.7707944,5.50070371 17.3290552,4.77610402 18.0969486,4.85357695 C18.8306627,5.10422464 19.0038375,5.92452617 19.13144,6.59216047 C19.8492038,10.730126 20.4188576,14.8977135 20.7036846,19.0880871 C20.7310279,20.3253753 20.7515355,21.642415 20.1636527,22.7680509 C19.5939989,23.2579532 18.9719369,22.5994334 18.7372395,22.0890236 C18.1926504,20.7902128 18.0559335,19.3683568 17.7961713,17.9966304 C17.620718,16.6385756 17.2105672,15.2919139 17.3176621,13.9133516 C18.0308687,13.9885459 18.7509112,14.0044963 19.4595606,14.1207056 C18.657488,13.3550909 17.7870569,12.6601132 16.8482674,12.0722304 C16.8528246,10.1148998 16.3879871,8.153012 16.6363561,6.18656694 Z" id="Path"></path>
                    <path d="M11.0810919,7.01598293 C12.0153242,6.41670709 13.4098368,6.85192262 13.7470718,7.9319863 C13.9589831,8.71127276 14.0022768,9.53157429 14.1321578,10.3268111 C12.9814571,9.35384229 12.0449462,8.16440507 11.0810919,7.01598293 Z" id="Path"></path>
                    <path d="M11.0127334,7.12535647 C12.0062097,8.093768 12.7968892,9.24902599 13.8496095,10.1604721 C14.1663371,10.3974481 14.1708943,10.818992 14.2483672,11.1721774 C14.7109261,14.5445281 15.4378044,17.9123216 16.8391529,21.0294674 C17.0966364,21.7198879 17.6252752,22.5789259 17.0305566,23.2442816 C16.2717777,23.5291085 15.221336,23.4288494 14.7428268,22.6951353 C14.1116503,21.7950822 13.9863265,20.6671676 13.6194694,19.6531837 C11.9765877,22.1778896 10.4658657,24.9304569 7.96394605,26.7237272 C6.73577237,27.726318 5.14757746,28.4873755 3.52976055,28.2481209 C2.03726749,27.9701298 0.957203803,26.6986624 0.540217191,25.2950354 C0.175638733,24.0304039 -0.00665049664,22.7088069 0.00018534945,21.3940459 C0.134623656,20.854014 0.519709653,20.4187985 0.811372419,19.9562396 C1.49267841,21.0682039 1.06202011,22.3806863 0.934417649,23.579238 C0.834158573,24.0577472 1.11214965,24.4770125 1.32178226,24.882606 C1.64306703,24.9099494 1.96207318,24.9464072 2.28335794,24.9669148 C2.57046348,24.4792911 2.85301179,23.9893888 3.1218884,23.4926506 C3.56393978,24.1215485 3.86243839,24.9555217 4.64400346,25.2449058 C5.60330053,25.6163202 6.56715483,25.0261588 7.34188405,24.5020772 C9.23085619,23.0323703 10.7119562,21.0636467 11.7350545,18.9080765 C12.3161014,17.7368682 12.5120623,16.3879279 12.2682505,15.1027889 C11.9013934,13.8928441 10.9010813,12.8196163 9.62733527,12.5871975 C8.83893435,12.4983315 7.99584666,12.4641523 7.2598539,12.803666 C6.47601022,13.1522941 5.82888345,13.7287838 5.17719946,14.2733729 C5.23188623,13.5670021 5.22505038,12.8606313 5.13390577,12.1588178 C5.16352777,11.7167664 5.20226423,11.2724364 5.27062269,10.8326637 C7.00920621,10.1490791 8.82754127,9.11458768 10.7598071,9.63183337 C10.6686625,8.78874568 10.5615676,7.89324984 11.0127334,7.12535647 Z" id="Path"></path>
                    <path d="M0.588068114,17.1216421 C1.21468734,15.2919139 2.18082025,13.4986436 3.70977116,12.27047 C3.63685547,13.3391406 3.37025747,14.385025 3.39532224,15.4605315 C3.41355117,16.5132518 2.13752656,16.5998392 1.4903998,17.1353138 C1.68636072,17.524957 1.90282918,17.9009285 2.13069072,18.2700642 C2.41779625,18.1538548 2.7071804,18.0444813 3.00112178,17.9419436 C2.93732055,18.9399771 2.71857348,19.924339 2.7664244,20.9292083 C2.83706148,21.553549 2.32893025,22.0024362 2.05777502,22.512846 C2.13069072,21.0818756 2.0395461,19.5916611 1.25114518,18.3475371 C0.968596879,18.5093188 0.681491344,18.6711005 0.4080575,18.8488325 C0.398943038,18.2677856 0.3784355,17.673067 0.588068114,17.1216421 Z" id="Path"></path>
                </g>
            </g>
        </g>
    </g>
</svg>